<?xml version="1.0" encoding="UTF-8"?>
<svg id="Capa_1" xmlns="http://www.w3.org/2000/svg" version="1.1" viewBox="0 0 250 250">
  <!-- Generator: Adobe Illustrator 30.2.1, SVG Export Plug-In . SVG Version: 2.1.1 Build 1)  -->
  <defs>
    <style>
      .st0, .st1 {
        fill: #1265ff;
      }

      .st1 {
        fill-rule: evenodd;
      }
    </style>
  </defs>
  <g id="simbolo">
    <path class="st0" d="M138.78,13.49c-4.53,1.68-19.07,6.27-26.54,10.52-16.1,9.14-48.84,31.72-70.19,93.41-13.25,38.27-12.52,94.62,17.67,111.71,6.68,3.78,17.63,7.97,21.28,9.53-15.59-15.78-31.28-24.15-27.98-85.07.79-14.67,13.91-76.97,58.51-119.56,5.23-4.98,25.39-18.71,27.22-20.54h.02Z"/>
    <path class="st1" d="M120.35,30.88c17.84-13.52,42.08-19.69,64.59-1.34,10.82,8.82,40.74,48.18,4.32,132.34-2.76,6.38-34.42,73.76-86.9,75.84-28.7,1.15-57.64-33.32-45.37-97.72,1-5.19,11.23-69.61,63.36-109.12h0ZM120.37,24.86c18.92-14.59,46.29-25.13,69.74-5.4,11.4,9.57,40.16,53.84,1.66,142.5-2.91,6.72-35.64,78.18-90.07,81.46-29.87,1.81-60.15-33.47-47.31-101.93,1.04-5.55,10.61-73.93,66-116.62h-.02Z"/>
    <path class="st1" d="M164.81,92.22c.66,25.98-1.59,50.84-20.73,52.88-14.5,1.53-25.28-13.01-27.05-17.35,14.59-29.19,17.58-33.19,25.73-38.34,7.08-4.49,17.69-.77,22.05,2.81h0ZM163.15,17.66c0,5.1,1,44.86,1,49.2-15.05-7.17-31.38-13.25-49.31,1.49-5.55,4.57-14.63,18.29-27.02,45.54-3.47-2.51-14.01-9.23-14.01-9.23l-11.78,21.41s5.97,4.19,11.97,8.78c.7.53.87,1.04.38,2.04-.49.98-23.52,46.05-23.52,46.05l16.24,44.91s33.93-68.85,36.57-73.87c15.78,19.24,47.63,30.79,66.04,15.05,6.34-5.42,25.6-17.31,25.6-74.59,0-13.29-1.83-62.62-1.83-62.62l-29.26-17.31s-1.08-1.96-1.08,3.15h0v-.02Z"/>
  </g>
</svg>